<?xml version="1.0" encoding="UTF-8"?>
<!DOCTYPE svg PUBLIC "-//W3C//DTD SVG 1.1//EN" "http://www.w3.org/Graphics/SVG/1.1/DTD/svg11.dtd">
<svg xmlns="http://www.w3.org/2000/svg" version="1.1" width="1916px" height="1916px" style="shape-rendering:geometricPrecision; text-rendering:geometricPrecision; image-rendering:optimizeQuality; fill-rule:evenodd; clip-rule:evenodd" xmlns:xlink="http://www.w3.org/1999/xlink">
<g><path style="opacity:0.997" fill="#3b1701" d="M 860.5,736.5 C 858.564,766.306 849.231,793.64 832.5,818.5C 880.174,880.891 890.007,948.891 862,1022.5C 846.573,1057.84 824.407,1088.34 795.5,1114C 815.437,1118.94 827.603,1131.44 832,1151.5C 832.5,1162.49 832.667,1173.49 832.5,1184.5C 836.6,1184.76 840.6,1184.43 844.5,1183.5C 857.382,1184.08 870.382,1184.91 883.5,1186C 896.776,1190.95 904.609,1200.45 907,1214.5C 910.083,1238.71 899.916,1253.54 876.5,1259C 800.167,1259.33 723.833,1259.67 647.5,1260C 588.882,1316.28 530.382,1373.11 472,1430.5C 471.833,1373.5 471.333,1316.5 470.5,1259.5C 445.177,1282.6 419.677,1305.6 394,1328.5C 393.833,1327.5 393.667,1326.5 393.5,1325.5C 402.753,1245.22 411.42,1164.89 419.5,1084.5C 425.986,1031.36 432.153,978.026 438,924.5C 442.987,878.31 464.82,842.81 503.5,818C 510.169,814.415 517.002,811.248 524,808.5C 533.84,767.143 543.673,725.81 553.5,684.5C 560.026,660.07 573.026,640.07 592.5,624.5C 592.192,623.692 591.692,623.025 591,622.5C 590.667,606.833 590.333,591.167 590,575.5C 574.863,570.757 559.696,566.09 544.5,561.5C 543.167,573.5 543.167,585.5 544.5,597.5C 554.788,606.544 555.121,616.044 545.5,626C 533.059,632.187 523.892,629.02 518,616.5C 516.251,608.006 518.918,601.339 526,596.5C 526.667,583.167 526.667,569.833 526,556.5C 506.807,550.247 487.64,544.08 468.5,538C 546.824,520.168 625.158,502.334 703.5,484.5C 781.842,502.334 860.176,520.168 938.5,538C 898.176,551 857.676,563.5 817,575.5C 816.667,591.167 816.333,606.833 816,622.5C 815.308,623.025 814.808,623.692 814.5,624.5C 846.847,654.565 862.18,691.898 860.5,736.5 Z"/></g>
<g><path style="opacity:1" fill="#6d675e" d="M 840.5,542.5 C 799.978,548.304 759.478,554.304 719,560.5C 682.255,550.967 645.755,540.967 609.5,530.5C 640.661,522.86 671.994,515.86 703.5,509.5C 750.596,519.553 797.596,530.053 844.5,541C 843.437,542.188 842.103,542.688 840.5,542.5 Z"/></g>
<g><path style="opacity:1" fill="#47463b" d="M 609.5,530.5 C 645.755,540.967 682.255,550.967 719,560.5C 759.478,554.304 799.978,548.304 840.5,542.5C 794.989,555.297 749.323,567.964 703.5,580.5C 656.44,567.652 609.44,554.652 562.5,541.5C 578.051,537.362 593.718,533.696 609.5,530.5 Z"/></g>
<g><path style="opacity:1" fill="#46463b" d="M 614.5,582.5 C 644.214,591.293 673.881,600.293 703.5,609.5C 733.4,600.088 763.4,591.088 793.5,582.5C 793.666,592.172 793.5,601.839 793,611.5C 788.363,615.236 783.196,618.07 777.5,620C 761.016,624.537 744.683,629.537 728.5,635C 719.496,639.165 711.162,644.331 703.5,650.5C 695.838,644.331 687.504,639.165 678.5,635C 663.363,629.715 648.029,625.049 632.5,621C 626.369,619.017 620.702,616.184 615.5,612.5C 614.501,602.522 614.168,592.522 614.5,582.5 Z"/></g>
<g><path style="opacity:1" fill="#f3901f" d="M 624.5,660.5 C 645.748,659.271 659.915,668.604 667,688.5C 670.245,712.212 660.411,727.045 637.5,733C 615.297,735.113 600.797,725.613 594,704.5C 592.073,681.33 602.24,666.663 624.5,660.5 Z"/></g>
<g><path style="opacity:1" fill="#f4901f" d="M 770.5,660.5 C 791.748,659.271 805.915,668.604 813,688.5C 816.01,707.982 808.843,722.149 791.5,731C 773.453,737.061 758.286,732.895 746,718.5C 734.052,696.795 738.219,678.961 758.5,665C 762.571,663.37 766.571,661.87 770.5,660.5 Z"/></g>
<g><path style="opacity:1" fill="#3c1802" d="M 643.5,681.5 C 637.435,681.735 634.269,684.735 634,690.5C 639.003,695.289 644.837,696.622 651.5,694.5C 649.493,713.841 639.159,720.674 620.5,715C 611.465,709.243 608.298,701.076 611,690.5C 616.445,679.237 625.278,675.07 637.5,678C 639.727,678.941 641.727,680.108 643.5,681.5 Z"/></g>
<g><path style="opacity:1" fill="#3d1802" d="M 789.5,681.5 C 785.537,681.089 781.87,681.922 778.5,684C 775.3,688.529 776.3,691.862 781.5,694C 786.545,695.829 791.545,695.662 796.5,693.5C 797.698,707.663 791.032,715.663 776.5,717.5C 762.265,715.768 755.432,707.768 756,693.5C 760.532,680.15 769.699,674.983 783.5,678C 785.727,678.941 787.727,680.108 789.5,681.5 Z"/></g>
<g><path style="opacity:1" fill="#f37c20" d="M 705.5,679.5 C 704.504,694.991 704.17,710.658 704.5,726.5C 704.103,727.525 703.437,727.692 702.5,727C 699.667,723.5 696.833,720 694,716.5C 693.09,707.173 692.257,697.84 691.5,688.5C 691.54,686.571 691.873,684.738 692.5,683C 696.278,681.361 700.111,679.861 704,678.5C 704.765,678.57 705.265,678.903 705.5,679.5 Z"/></g>
<g><path style="opacity:1" fill="#f4901f" d="M 705.5,679.5 C 709.73,680.282 713.397,682.115 716.5,685C 715.154,695.468 713.987,705.968 713,716.5C 710.302,720.025 707.469,723.358 704.5,726.5C 704.17,710.658 704.504,694.991 705.5,679.5 Z"/></g>
<g><path style="opacity:1" fill="#faf9f8" d="M 643.5,681.5 C 647.694,681.177 651.527,682.177 655,684.5C 657.513,689.114 656.346,692.447 651.5,694.5C 644.837,696.622 639.003,695.289 634,690.5C 634.269,684.735 637.435,681.735 643.5,681.5 Z"/></g>
<g><path style="opacity:1" fill="#fbfaf8" d="M 789.5,681.5 C 795.565,681.735 798.731,684.735 799,690.5C 797.955,691.373 797.122,692.373 796.5,693.5C 791.545,695.662 786.545,695.829 781.5,694C 776.3,691.862 775.3,688.529 778.5,684C 781.87,681.922 785.537,681.089 789.5,681.5 Z"/></g>
<g><path style="opacity:0.996" fill="#8e5934" d="M 553.5,684.5 C 543.673,725.81 533.84,767.143 524,808.5C 517.002,811.248 510.169,814.415 503.5,818C 464.82,842.81 442.987,878.31 438,924.5C 432.153,978.026 425.986,1031.36 419.5,1084.5C 417.914,1075.23 416.747,1065.9 416,1056.5C 415.333,986.833 415.333,917.167 416,847.5C 419.191,796.969 438.691,754.136 474.5,719C 496.891,698.812 523.225,687.312 553.5,684.5 Z"/></g>
<g><path style="opacity:1" fill="#cfa276" d="M 780.5,772.5 C 760.198,773.427 743.698,766.094 731,750.5C 722.068,764.044 712.901,777.378 703.5,790.5C 694.747,777.326 685.747,764.326 676.5,751.5C 663.26,765.336 647.26,773.003 628.5,774.5C 618.442,768.613 608.775,762.113 599.5,755C 593.964,749.736 590.131,743.57 588,736.5C 613.626,758.82 640.459,760.32 668.5,741C 671.35,738.318 674.016,735.484 676.5,732.5C 685.5,745.833 694.5,759.167 703.5,772.5C 712.439,759.052 721.605,745.719 731,732.5C 749.793,753.574 772.626,759.407 799.5,750C 806.959,746.857 813.459,742.357 819,736.5C 816.64,744.567 812.14,751.401 805.5,757C 797.781,763.191 789.448,768.358 780.5,772.5 Z"/></g>
<g><path style="opacity:0.995" fill="#8e5934" d="M 860.5,736.5 C 885.014,768.18 898.847,804.18 902,844.5C 902.667,916.167 902.667,987.833 902,1059.5C 898.64,1108.52 879.474,1149.85 844.5,1183.5C 840.6,1184.43 836.6,1184.76 832.5,1184.5C 832.667,1173.49 832.5,1162.49 832,1151.5C 827.603,1131.44 815.437,1118.94 795.5,1114C 824.407,1088.34 846.573,1057.84 862,1022.5C 890.007,948.891 880.174,880.891 832.5,818.5C 849.231,793.64 858.564,766.306 860.5,736.5 Z"/></g>
<g><path style="opacity:1" fill="#e4c69e" d="M 780.5,772.5 C 755.065,788.725 729.399,804.725 703.5,820.5C 678.639,804.905 653.639,789.571 628.5,774.5C 647.26,773.003 663.26,765.336 676.5,751.5C 685.747,764.326 694.747,777.326 703.5,790.5C 712.901,777.378 722.068,764.044 731,750.5C 743.698,766.094 760.198,773.427 780.5,772.5 Z"/></g>
<g><path style="opacity:1" fill="#cfa276" d="M 831.5,762.5 C 828.663,780.686 820.996,796.852 808.5,811C 773.695,834.972 739.029,859.139 704.5,883.5C 703.179,871.271 703.179,859.104 704.5,847C 744.004,823.418 783.004,799.084 821.5,774C 825.416,770.59 828.749,766.757 831.5,762.5 Z"/></g>
<g><path style="opacity:1" fill="#994027" d="M 670.5,874.5 C 680.011,924.818 667.344,968.485 632.5,1005.5C 618.859,1006.59 605.192,1006.76 591.5,1006C 573.277,1003.89 555.277,1000.89 537.5,997C 523.002,1024.5 501.668,1044.83 473.5,1058C 464.833,1061.94 455.833,1064.78 446.5,1066.5C 450.937,1020.14 455.77,973.802 461,927.5C 465.551,887.185 485.051,856.685 519.5,836C 566.827,815.776 610.827,821.443 651.5,853C 658.785,859.444 665.119,866.611 670.5,874.5 Z"/></g>
<g><path style="opacity:1" fill="#a4916d" d="M 796.5,1079.5 C 753.715,1080.36 728.882,1059.7 722,1017.5C 719.073,999.276 717.239,980.943 716.5,962.5C 717.372,945.468 716.039,928.634 712.5,912C 746.367,885.812 780.533,859.978 815,834.5C 858.165,891.645 865.832,953.311 838,1019.5C 827.814,1042.16 813.98,1062.16 796.5,1079.5 Z"/></g>
<g><path style="opacity:0.992" fill="#3a1600" d="M 1004.5,861.5 C 1044.02,857.481 1075.52,871.147 1099,902.5C 1117.91,937.301 1118.24,972.301 1100,1007.5C 1079.93,1036.04 1052.26,1050.37 1017,1050.5C 986.671,1050.66 961.337,1039.66 941,1017.5C 924.35,995.684 917.684,971.018 921,943.5C 928.549,895.451 956.382,868.117 1004.5,861.5 Z M 1010.5,908.5 C 1034.23,908.461 1048.4,920.127 1053,943.5C 1057.29,964.19 1051.79,981.69 1036.5,996C 1017.61,1005.91 1001.44,1002.75 988,986.5C 976.761,965.839 976.761,945.172 988,924.5C 993.761,916.551 1001.26,911.217 1010.5,908.5 Z"/></g>
<g><path style="opacity:0.99" fill="#3a1600" d="M 1122.5,866.5 C 1142.33,865.503 1162.33,865.17 1182.5,865.5C 1188.05,902.486 1193.55,939.486 1199,976.5C 1205.08,949.601 1210.58,922.601 1215.5,895.5C 1236.18,895.167 1256.84,895.5 1277.5,896.5C 1283.52,923.109 1289.36,949.776 1295,976.5C 1300.64,939.511 1306.14,902.511 1311.5,865.5C 1331.5,865.333 1351.5,865.5 1371.5,866C 1357.92,925.493 1344.25,984.993 1330.5,1044.5C 1309.84,1045.5 1289.18,1045.83 1268.5,1045.5C 1261.65,1014.1 1254.48,982.771 1247,951.5C 1239.99,982.544 1232.82,1013.54 1225.5,1044.5C 1204.84,1045.5 1184.18,1045.83 1163.5,1045.5C 1149.96,985.683 1136.29,926.017 1122.5,866.5 Z"/></g>
<g><path style="opacity:0.997" fill="#391600" d="M 1392.5,865.5 C 1411.5,865.5 1430.5,865.5 1449.5,865.5C 1449.5,912.167 1449.5,958.833 1449.5,1005.5C 1470.5,1005.5 1491.5,1005.5 1512.5,1005.5C 1512.5,1018.83 1512.5,1032.17 1512.5,1045.5C 1472.5,1045.5 1432.5,1045.5 1392.5,1045.5C 1392.5,985.5 1392.5,925.5 1392.5,865.5 Z"/></g>
<g><path style="opacity:1" fill="#91351e" d="M 670.5,874.5 C 685.785,896.431 693.451,920.931 693.5,948C 693.153,955.51 692.653,963.01 692,970.5C 682.879,985.821 669.712,995.988 652.5,1001C 645.924,1002.95 639.258,1004.45 632.5,1005.5C 667.344,968.485 680.011,924.818 670.5,874.5 Z"/></g>
<g><path style="opacity:1" fill="#3b1802" d="M 832.5,908.5 C 839.288,907.78 843.454,910.78 845,917.5C 846.674,926.039 845.174,933.872 840.5,941C 836.237,944.483 832.404,943.983 829,939.5C 823.435,928.299 824.602,917.965 832.5,908.5 Z"/></g>
<g><path style="opacity:1" fill="#3c1802" d="M 793.5,919.5 C 800.733,918.893 804.9,922.226 806,929.5C 807.945,938.563 805.778,946.397 799.5,953C 795.102,954.378 791.602,953.212 789,949.5C 783.488,938.259 784.988,928.259 793.5,919.5 Z"/></g>
<g><path style="opacity:1" fill="#3b1702" d="M 750.5,922.5 C 756.484,923.653 759.984,927.319 761,933.5C 762.194,940.521 761.194,947.187 758,953.5C 749.872,959.786 744.539,957.786 742,947.5C 740.69,940.129 741.69,933.129 745,926.5C 746.5,924.531 748.333,923.198 750.5,922.5 Z"/></g>
<g><path style="opacity:1" fill="#3c1803" d="M 816.5,969.5 C 821.919,968.959 825.419,971.293 827,976.5C 829.128,984.539 828.128,992.205 824,999.5C 817.288,1006.66 811.955,1005.66 808,996.5C 805.198,985.5 808.031,976.5 816.5,969.5 Z"/></g>
<g><path style="opacity:1" fill="#8a7558" d="M 716.5,962.5 C 717.239,980.943 719.073,999.276 722,1017.5C 728.882,1059.7 753.715,1080.36 796.5,1079.5C 777.545,1099.45 757.878,1118.79 737.5,1137.5C 719.931,1112.74 697.265,1106.91 669.5,1120C 631.178,1140.49 593.178,1161.49 555.5,1183C 554.241,1183.98 552.908,1184.32 551.5,1184C 592.266,1147.9 632.433,1111.07 672,1073.5C 699.602,1041.63 714.435,1004.63 716.5,962.5 Z"/></g>
<g><path style="opacity:1" fill="#3c1803" d="M 774.5,978.5 C 780.625,977.782 784.458,980.448 786,986.5C 789.22,996.165 787.387,1004.67 780.5,1012C 773.795,1013.73 769.628,1011.23 768,1004.5C 764.585,994.275 766.752,985.609 774.5,978.5 Z"/></g>
<g><path style="opacity:1" fill="#91351e" d="M 511.5,1062.5 C 511.56,1063.04 511.893,1063.38 512.5,1063.5C 540.815,1052.67 568.815,1041.33 596.5,1029.5C 620.722,1031.07 644.388,1028.24 667.5,1021C 672.19,1019.22 676.69,1017.05 681,1014.5C 675.865,1027.76 668.865,1040.09 660,1051.5C 651.167,1061.67 641.667,1071.17 631.5,1080C 609.204,1078.73 587.537,1074.23 566.5,1066.5C 545.954,1112.18 510.621,1137.68 460.5,1143C 452.841,1143.5 445.174,1143.67 437.5,1143.5C 439.201,1126.49 441.034,1109.49 443,1092.5C 467.919,1087.04 490.752,1077.04 511.5,1062.5 Z"/></g>
<g><path style="opacity:1" fill="#994027" d="M 596.5,1029.5 C 568.815,1041.33 540.815,1052.67 512.5,1063.5C 511.893,1063.38 511.56,1063.04 511.5,1062.5C 526.041,1051.79 538.374,1038.96 548.5,1024C 564.401,1026.32 580.401,1028.15 596.5,1029.5 Z"/></g>
<g><path style="opacity:1" fill="#3c1802" d="M 794.5,1028.5 C 799.305,1029.13 802.472,1031.8 804,1036.5C 805.732,1046.3 803.232,1054.8 796.5,1062C 791.473,1064.62 787.64,1063.45 785,1058.5C 780.904,1045.96 784.071,1035.96 794.5,1028.5 Z"/></g>
<g><path style="opacity:0.954" fill="#3a1600" d="M 935.5,1091.5 C 942.844,1090.77 949.844,1091.93 956.5,1095C 961.384,1098.6 963.718,1103.44 963.5,1109.5C 958.125,1109.83 952.792,1109.49 947.5,1108.5C 943.764,1102.07 939.764,1101.9 935.5,1108C 936.257,1109.51 937.257,1110.85 938.5,1112C 944.752,1114.86 951.085,1117.53 957.5,1120C 966.636,1128.91 966.636,1137.91 957.5,1147C 946.966,1153.03 936.633,1152.69 926.5,1146C 922.278,1142.5 920.278,1138 920.5,1132.5C 925.511,1132.33 930.511,1132.5 935.5,1133C 938.431,1138.75 942.597,1139.91 948,1136.5C 948.896,1133.97 948.396,1131.81 946.5,1130C 939.833,1127.33 933.167,1124.67 926.5,1122C 919.569,1114.53 918.736,1106.36 924,1097.5C 927.575,1094.8 931.408,1092.8 935.5,1091.5 Z"/></g>
<g><path style="opacity:0.965" fill="#391600" d="M 1021.5,1091.5 C 1036.41,1089.73 1047.24,1095.39 1054,1108.5C 1054.49,1109.79 1054.66,1111.13 1054.5,1112.5C 1049.16,1112.67 1043.82,1112.5 1038.5,1112C 1033.13,1104.99 1026.46,1103.65 1018.5,1108C 1012.96,1115.25 1012.12,1123.08 1016,1131.5C 1023.92,1139.81 1031.42,1139.48 1038.5,1130.5C 1043.79,1129.51 1049.13,1129.17 1054.5,1129.5C 1052.64,1140.34 1046.3,1147.17 1035.5,1150C 1012.82,1153.34 1000.15,1143.67 997.5,1121C 998.567,1105.29 1006.57,1095.46 1021.5,1091.5 Z"/></g>
<g><path style="opacity:0.965" fill="#3a1600" d="M 1200.5,1091.5 C 1229.82,1091.66 1240.99,1105.99 1234,1134.5C 1222.67,1151.59 1207.84,1155.42 1189.5,1146C 1175.94,1133.83 1173.44,1119.66 1182,1103.5C 1187.07,1097.56 1193.23,1093.56 1200.5,1091.5 Z M 1201.5,1105.5 C 1218.25,1105.1 1224.41,1113.1 1220,1129.5C 1214.37,1137.26 1207.2,1139.1 1198.5,1135C 1190.72,1127.12 1189.89,1118.62 1196,1109.5C 1197.5,1107.53 1199.33,1106.2 1201.5,1105.5 Z"/></g>
<g><path style="opacity:0.959" fill="#391600" d="M 1090.5,1092.5 C 1095.83,1092.5 1101.17,1092.5 1106.5,1092.5C 1106.5,1099.83 1106.5,1107.17 1106.5,1114.5C 1113.17,1114.5 1119.83,1114.5 1126.5,1114.5C 1126.5,1107.17 1126.5,1099.83 1126.5,1092.5C 1131.5,1092.5 1136.5,1092.5 1141.5,1092.5C 1141.5,1111.83 1141.5,1131.17 1141.5,1150.5C 1136.5,1150.5 1131.5,1150.5 1126.5,1150.5C 1126.5,1142.5 1126.5,1134.5 1126.5,1126.5C 1119.83,1126.5 1113.17,1126.5 1106.5,1126.5C 1106.5,1134.5 1106.5,1142.5 1106.5,1150.5C 1101.17,1150.5 1095.83,1150.5 1090.5,1150.5C 1090.5,1131.17 1090.5,1111.83 1090.5,1092.5 Z"/></g>
<g><path style="opacity:0.952" fill="#3a1600" d="M 1271.5,1092.5 C 1276.5,1092.5 1281.5,1092.5 1286.5,1092.5C 1286.5,1107.83 1286.5,1123.17 1286.5,1138.5C 1292.83,1138.5 1299.17,1138.5 1305.5,1138.5C 1305.5,1142.5 1305.5,1146.5 1305.5,1150.5C 1294.17,1150.5 1282.83,1150.5 1271.5,1150.5C 1271.5,1131.17 1271.5,1111.83 1271.5,1092.5 Z"/></g>
<g><path style="opacity:0.962" fill="#391600" d="M 1356.5,1092.5 C 1362.43,1092.19 1368.26,1092.53 1374,1093.5C 1381.01,1112.37 1387.51,1131.37 1393.5,1150.5C 1388.49,1150.67 1383.49,1150.5 1378.5,1150C 1377,1147 1376,1143.83 1375.5,1140.5C 1368.49,1140.33 1361.49,1140.5 1354.5,1141C 1353.27,1143.74 1352.27,1146.57 1351.5,1149.5C 1346.17,1150.83 1340.83,1150.83 1335.5,1149.5C 1342.66,1130.52 1349.66,1111.52 1356.5,1092.5 Z M 1364.5,1110.5 C 1367.08,1116.23 1369.08,1122.23 1370.5,1128.5C 1366.45,1128.82 1362.45,1128.49 1358.5,1127.5C 1360.91,1121.95 1362.91,1116.28 1364.5,1110.5 Z"/></g>
<g><path style="opacity:0.962" fill="#391600" d="M 1427.5,1092.5 C 1437.84,1092.33 1448.17,1092.5 1458.5,1093C 1470.89,1096.6 1475.39,1104.76 1472,1117.5C 1469.47,1122.36 1465.64,1125.86 1460.5,1128C 1464.96,1135.08 1469.29,1142.25 1473.5,1149.5C 1467.86,1150.66 1462.2,1150.83 1456.5,1150C 1452.96,1143.09 1449.29,1136.25 1445.5,1129.5C 1444.68,1128.61 1443.68,1128.28 1442.5,1128.5C 1442.5,1135.83 1442.5,1143.17 1442.5,1150.5C 1437.5,1150.5 1432.5,1150.5 1427.5,1150.5C 1427.5,1131.17 1427.5,1111.83 1427.5,1092.5 Z M 1442.5,1104.5 C 1446.94,1104.21 1451.27,1104.71 1455.5,1106C 1458.09,1109.6 1458.09,1113.26 1455.5,1117C 1451.18,1117.5 1446.85,1117.67 1442.5,1117.5C 1442.5,1113.17 1442.5,1108.83 1442.5,1104.5 Z"/></g>
<g><path style="opacity:1" fill="#91351e" d="M 578.5,1094.5 C 587.407,1096.88 596.407,1099.04 605.5,1101C 545.908,1150.05 486.408,1199.21 427,1248.5C 429.073,1221.15 431.573,1193.82 434.5,1166.5C 485.276,1169.68 528.109,1153.01 563,1116.5C 568.914,1109.66 574.081,1102.33 578.5,1094.5 Z"/></g>
<g><path style="opacity:1" fill="#f5911f" d="M 719.5,1172.5 C 704.9,1176.15 690.233,1176.32 675.5,1173C 665.389,1170.38 658.722,1164.22 655.5,1154.5C 664.686,1148.83 674.019,1143.33 683.5,1138C 701.294,1132.31 713.128,1138.15 719,1155.5C 719.499,1161.16 719.666,1166.82 719.5,1172.5 Z"/></g>
<g><path style="opacity:1" fill="#f37b20" d="M 807.5,1152.5 C 796.279,1152.03 785.612,1154.2 775.5,1159C 767.357,1165.45 763.023,1173.95 762.5,1184.5C 755.833,1184.5 749.167,1184.5 742.5,1184.5C 742.334,1178.16 742.5,1171.82 743,1165.5C 750.833,1157.67 758.667,1149.83 766.5,1142C 778.295,1134.98 789.961,1134.98 801.5,1142C 804.6,1144.92 806.6,1148.42 807.5,1152.5 Z"/></g>
<g><path style="opacity:1" fill="#f5911f" d="M 807.5,1152.5 C 808.29,1153.61 808.79,1154.94 809,1156.5C 809.5,1165.83 809.666,1175.16 809.5,1184.5C 793.833,1184.5 778.167,1184.5 762.5,1184.5C 763.023,1173.95 767.357,1165.45 775.5,1159C 785.612,1154.2 796.279,1152.03 807.5,1152.5 Z"/></g>
<g><path style="opacity:1" fill="#f57c20" d="M 655.5,1154.5 C 658.722,1164.22 665.389,1170.38 675.5,1173C 690.233,1176.32 704.9,1176.15 719.5,1172.5C 719.5,1176.5 719.5,1180.5 719.5,1184.5C 681.996,1184.83 644.663,1184.5 607.5,1183.5C 623.483,1173.86 639.483,1164.19 655.5,1154.5 Z"/></g>
<g><path style="opacity:1" fill="#5a2906" d="M 607.5,1183.5 C 644.663,1184.5 681.996,1184.83 719.5,1184.5C 681.998,1185.83 644.331,1185.83 606.5,1184.5C 606.624,1183.89 606.957,1183.56 607.5,1183.5 Z"/></g>
<g><path style="opacity:1" fill="#887356" d="M 873.5,1208.5 C 776.833,1208.5 680.167,1208.5 583.5,1208.5C 583.886,1216.05 587.886,1220.22 595.5,1221C 691.499,1221.5 787.499,1221.67 883.5,1221.5C 883.5,1220.5 883.5,1219.5 883.5,1218.5C 884.743,1223.02 883.91,1227.35 881,1231.5C 879.13,1233.22 876.963,1234.22 874.5,1234.5C 748.666,1234.83 622.999,1234.5 497.5,1233.5C 506.963,1225.21 516.296,1216.71 525.5,1208C 641.667,1207.17 757.667,1207.33 873.5,1208.5 Z"/></g>
<g><path style="opacity:1" fill="#a29483" d="M 873.5,1208.5 C 879.167,1209.5 882.5,1212.83 883.5,1218.5C 883.5,1219.5 883.5,1220.5 883.5,1221.5C 787.499,1221.67 691.499,1221.5 595.5,1221C 587.886,1220.22 583.886,1216.05 583.5,1208.5C 680.167,1208.5 776.833,1208.5 873.5,1208.5 Z"/></g>
<g><path style="opacity:1" fill="#7e664b" d="M 497.5,1233.5 C 622.999,1234.5 748.666,1234.83 874.5,1234.5C 748.334,1235.67 622.001,1235.83 495.5,1235C 496.044,1234.28 496.711,1233.78 497.5,1233.5 Z"/></g>
<g><path style="opacity:1" fill="#8a7558" d="M 495.5,1258.5 C 533.835,1258.33 572.168,1258.5 610.5,1259C 572.647,1291.69 534.647,1324.19 496.5,1356.5C 495.5,1323.84 495.167,1291.17 495.5,1258.5 Z"/></g>
</svg>
